HIERARCHY
ROOT Hips
{
	OFFSET 0.000000 0.000000 0.000000
	CHANNELS 6 Xposition Yposition Zposition Xrotation Yrotation Zrotation
	JOINT LeftUpLeg_virtual
	{
		OFFSET 0.000000 0.000000 0.000000
		CHANNELS 3 Xrotation Yrotation Zrotation
		JOINT LeftUpLeg
		{
			OFFSET 0.086025 -0.002322 0.060046
			CHANNELS 3 Xrotation Yrotation Zrotation
			JOINT LeftLeg
			{
				OFFSET 0.005130 0.001862 0.314250
				CHANNELS 3 Xrotation Yrotation Zrotation
				JOINT LeftFoot
				{
					OFFSET 0.029099 0.003055 0.305414
					CHANNELS 3 Xrotation Yrotation Zrotation
					JOINT LeftToeBase
					{
						OFFSET 0.032406 0.158115 0.089037
						CHANNELS 3 Xrotation Yrotation Zrotation
						JOINT LeftToe_End
						{
							OFFSET 0.020098 0.068010 -0.003802
							CHANNELS 3 Xrotation Yrotation Zrotation
							End Site
							{
								OFFSET 0 0 0
							}
						}
					}
				}
			}
		}
	}
	JOINT RightUpLeg_virtual
	{
		OFFSET 0.000000 0.000000 0.000000
		CHANNELS 3 Xrotation Yrotation Zrotation
		JOINT RightUpLeg
		{
			OFFSET -0.086024 0.004521 0.060047
			CHANNELS 3 Xrotation Yrotation Zrotation
			JOINT RightLeg
			{
				OFFSET -0.005129 0.001774 0.314251
				CHANNELS 3 Xrotation Yrotation Zrotation
				JOINT RightFoot
				{
					OFFSET -0.029099 0.004797 0.305414
					CHANNELS 3 Xrotation Yrotation Zrotation
					JOINT RightToeBase
					{
						OFFSET -0.032405 0.159308 0.089036
						CHANNELS 3 Xrotation Yrotation Zrotation
						JOINT RightToe_End
						{
							OFFSET -0.020098 0.066652 -0.003802
							CHANNELS 3 Xrotation Yrotation Zrotation
							End Site
							{
								OFFSET 0 0 0
							}
						}
					}
				}
			}
		}
	}
	JOINT Spine_virtual
	{
		OFFSET 0.000000 0.000000 0.000000
		CHANNELS 3 Xrotation Yrotation Zrotation
		JOINT Spine
		{
			OFFSET 0.000000 -0.008525 -0.108039
			CHANNELS 3 Xrotation Yrotation Zrotation
			JOINT Spine1
			{
				OFFSET 0.000000 -0.009946 -0.126046
				CHANNELS 3 Xrotation Yrotation Zrotation
				JOINT Spine2
				{
					OFFSET 0.000000 -0.011367 -0.144052
					CHANNELS 3 Xrotation Yrotation Zrotation
					JOINT Neck_virtual
					{
						OFFSET 0.000000 0.000000 0.000000
						CHANNELS 3 Xrotation Yrotation Zrotation
						JOINT Neck
						{
							OFFSET 0.000000 -0.012788 -0.162059
							CHANNELS 3 Xrotation Yrotation Zrotation
							JOINT Head
							{
								OFFSET 0.000000 -0.019313 -0.077391
								CHANNELS 3 Xrotation Yrotation Zrotation
								JOINT HeadTop_End
								{
									OFFSET 0.000000 -0.142419 -0.570699
									CHANNELS 3 Xrotation Yrotation Zrotation
									End Site
									{
										OFFSET 0 0 0
									}
								}
							}
						}
					}
					JOINT LeftShoulder_virtual
					{
						OFFSET 0.000000 0.000000 0.000000
						CHANNELS 3 Xrotation Yrotation Zrotation
						JOINT LeftShoulder
						{
							OFFSET 0.059117 -0.013497 -0.154003
							CHANNELS 3 Xrotation Yrotation Zrotation
							JOINT LeftArm
							{
								OFFSET 0.105067 -0.001420 0.016848
								CHANNELS 3 Xrotation Yrotation Zrotation
								JOINT LeftForeArm
								{
									OFFSET 0.311627 -0.003307 -0.007856
									CHANNELS 3 Xrotation Yrotation Zrotation
									JOINT LeftHand
									{
										OFFSET 0.267365 -0.006620 -0.009061
										CHANNELS 3 Xrotation Yrotation Zrotation
										End Site
										{
											OFFSET 0 0 0
										}
									}
								}
							}
						}
					}
					JOINT RightShoulder_virtual
					{
						OFFSET 0.000000 0.000000 0.000000
						CHANNELS 3 Xrotation Yrotation Zrotation
						JOINT RightShoulder
						{
							OFFSET -0.059117 -0.012078 -0.154003
							CHANNELS 3 Xrotation Yrotation Zrotation
							JOINT RightArm
							{
								OFFSET -0.105067 0.001420 0.016849
								CHANNELS 3 Xrotation Yrotation Zrotation
								JOINT RightForeArm
								{
									OFFSET -0.311626 -0.007328 -0.007857
									CHANNELS 3 Xrotation Yrotation Zrotation
									JOINT RightHand
									{
										OFFSET -0.267364 -0.007689 -0.009061
										CHANNELS 3 Xrotation Yrotation Zrotation
										End Site
										{
											OFFSET 0 0 0
										}
									}
								}
							}
						}
					}
				}
			}
		}
	}
}
MOTION
Frames: 10
Frame Time: 0.03333333
-0.458067 1.492384 0.386084 0.000000 0.000000 0.000000 90.716510 -4.130580 95.932063 1.514860 -37.853694 79.156469 -28.566467 3.249550 63.369341 8.366450 1.655862 100.479828 50.526304 11.243457 -11.857885 0.000000 0.000000 0.000000 90.665973 -4.187910 95.431676 -3.829515 -16.289991 47.634928 -47.546695 46.284166 67.216049 4.926451 -11.250992 142.229359 44.305357 -20.094720 20.612988 0.000000 0.000000 0.000000 90.735962 -4.216483 95.683929 -15.738750 18.786442 -72.334654 -115.661467 25.007129 163.913748 0.000000 0.000000 0.000000 -117.151978 25.623018 159.114489 71.735435 -48.070274 172.805152 -111.440656 -13.337979 160.666635 0.000000 0.000000 0.000000 -116.043889 23.921264 159.625455 -37.988088 -12.824472 -56.247960 -170.939090 45.997171 41.912308 -38.670332 4.329882 117.765329 0.000000 0.000000 0.000000 -116.914342 23.936516 160.196555 -96.743523 -9.024044 169.779132 74.621217 -36.804836 -19.456501 17.061456 69.173007 68.194200 0.000000 0.000000 0.000000 
-0.624409 1.084992 0.488071 0.000000 0.000000 0.000000 90.856378 -4.141578 95.135854 -9.020249 -33.588589 85.118016 -39.949336 25.798821 94.110397 16.644397 -11.626714 123.475750 44.542546 15.922120 -10.086788 0.000000 0.000000 0.000000 90.850627 -4.004370 94.831405 -9.901939 4.055302 85.003753 -39.426304 64.231850 81.330826 22.513693 -25.795499 162.619154 44.376972 3.130867 3.543545 0.000000 0.000000 0.000000 90.868065 -4.152541 95.136940 11.078185 1.066792 -87.681447 -108.880701 16.845557 143.365575 0.000000 0.000000 0.000000 -111.711261 17.775671 140.893962 89.649095 -27.317931 -132.456247 -114.868428 -41.384260 144.872042 0.000000 0.000000 0.000000 -111.796892 16.899640 139.166908 -29.935049 -20.369087 -42.611651 157.433456 29.619395 59.472185 -25.960606 -27.744222 94.978322 0.000000 0.000000 0.000000 -111.682301 17.025256 141.919624 -115.544125 -22.322224 -169.558695 28.383876 -37.885048 -19.056844 57.305929 67.938143 35.188079 0.000000 0.000000 0.000000 
-0.750685 0.605088 0.584910 0.000000 0.000000 0.000000 90.911730 -3.924158 94.722470 -37.035396 -13.090885 77.828032 -56.499328 43.146435 131.373115 26.709057 -29.527219 147.835319 56.587766 8.307224 -13.050746 0.000000 0.000000 0.000000 90.913793 -3.784410 93.623937 -19.184982 30.829121 92.703644 -70.113258 60.098705 147.876451 35.677275 -40.176569 -155.335878 51.460162 1.551100 14.843982 0.000000 0.000000 0.000000 90.908288 -3.699687 95.821222 47.897900 -18.150690 -70.196450 -109.741674 -34.233407 171.679496 0.000000 0.000000 0.000000 -118.394950 -35.028273 166.662517 60.825485 -48.181353 -155.586942 -118.718578 -50.218023 128.252101 0.000000 0.000000 0.000000 -118.174444 -36.038752 164.886750 47.949369 -34.309796 35.001830 140.744927 6.206379 90.426671 -26.094661 -22.271906 94.045100 0.000000 0.000000 0.000000 -117.305890 -37.612049 170.902316 -105.407202 -62.481806 -76.493720 -18.371749 -35.770206 -37.536114 48.037882 64.057318 40.437042 0.000000 0.000000 0.000000 
-0.805304 0.208309 0.640116 0.000000 0.000000 0.000000 91.054010 -3.446450 95.244058 -100.699426 42.788082 85.564430 -75.969052 55.303202 176.011885 26.345850 -52.035711 150.429685 41.646385 2.659060 -22.535676 0.000000 0.000000 0.000000 90.986787 -3.538261 93.990213 -17.923980 49.836643 84.094901 -80.310566 57.237696 176.523398 61.805938 -40.138836 -123.811304 47.987929 -10.457971 22.429069 0.000000 0.000000 0.000000 91.079610 -3.156370 96.738490 97.262372 -16.708354 -37.493166 14.896591 -68.219164 -45.154599 0.000000 0.000000 0.000000 28.051326 -70.092378 -24.893220 -39.128303 -37.372640 94.491159 -120.597741 -35.285594 105.049006 0.000000 0.000000 0.000000 34.216150 -67.351908 -20.140334 91.821389 -0.088321 70.732797 130.020437 -0.511875 119.188263 -54.953663 -27.317567 133.584567 0.000000 0.000000 0.000000 29.717067 -69.741176 -23.327017 -44.185491 -48.062798 16.892076 -34.483023 -21.425458 -79.486709 32.286161 62.426829 49.058817 0.000000 0.000000 0.000000 
-0.796010 0.100168 0.650052 0.000000 0.000000 0.000000 91.247612 -3.210696 95.314409 115.696055 35.546231 178.715684 -86.710734 63.039586 -154.590581 -25.264620 -50.509737 84.939181 -4.002722 3.649402 24.744269 0.000000 0.000000 0.000000 91.031163 -3.334786 94.688565 -13.992176 52.733036 69.663463 -83.567877 73.896855 -172.518134 137.771759 -49.632973 -90.944290 45.210101 -19.842724 7.474192 0.000000 0.000000 0.000000 91.152419 -3.069666 95.627539 126.762123 7.026494 -17.459630 57.079881 -41.410344 6.231331 0.000000 0.000000 0.000000 62.012483 -36.288836 18.638452 -75.433074 -14.726400 56.553724 -112.871150 -8.798535 76.048761 0.000000 0.000000 0.000000 60.017002 -34.153353 15.700732 91.480610 12.224976 73.130644 97.373021 0.994331 138.028001 -65.379042 -45.186704 158.611117 0.000000 0.000000 0.000000 60.734664 -39.843560 16.400360 -17.091495 -35.262788 5.239092 -28.721328 -21.071916 -108.196590 19.346214 62.013371 46.333678 0.000000 0.000000 0.000000 
-0.708928 0.413006 0.612587 0.000000 0.000000 0.000000 91.094219 -3.464275 94.331558 77.004222 13.619397 -164.179251 -29.253594 66.064520 151.626525 -16.762329 -19.151338 51.842977 -51.008204 -34.817456 34.933655 0.000000 0.000000 0.000000 91.094848 -3.677255 93.363789 -12.690506 47.588445 47.545124 33.657516 66.718142 70.373065 -106.567063 -45.223888 -60.158756 55.714133 0.256099 20.188840 0.000000 0.000000 0.000000 91.048812 -3.432981 94.370156 107.581872 30.077534 0.642610 24.452762 -15.902893 26.179418 0.000000 0.000000 0.000000 25.426375 -15.394628 33.990433 -110.232478 4.583621 36.531352 -99.395631 6.314768 39.119919 0.000000 0.000000 0.000000 25.887209 -12.000420 32.497705 74.202315 17.964740 69.647603 29.622319 -11.213141 128.964627 -55.891585 -44.688275 155.292711 0.000000 0.000000 0.000000 22.155008 -14.473796 31.209515 -0.160436 -39.944688 -33.971821 -25.621616 -33.320712 -116.180848 10.699280 55.466768 18.434033 0.000000 0.000000 0.000000 
-0.568298 0.970034 0.549995 0.000000 0.000000 0.000000 90.871596 -3.828196 93.419974 53.245566 10.537746 -139.633628 1.823539 28.491243 97.521147 -0.630702 -2.194864 37.438111 -34.784623 -4.052914 -46.784453 0.000000 0.000000 0.000000 90.923827 -3.922422 92.284564 -18.545690 42.212925 19.144406 0.133966 40.747696 62.435825 -42.829961 -50.045950 -50.700091 58.728261 -5.814660 22.180840 0.000000 0.000000 0.000000 90.768945 -3.820423 94.421471 47.909932 26.886037 33.553400 -44.492303 7.945789 50.848129 0.000000 0.000000 0.000000 -43.398110 4.577063 50.543021 -131.748243 29.543194 41.974432 -91.368670 0.830010 3.177071 0.000000 0.000000 0.000000 -41.662631 7.115005 53.453317 53.122793 51.744690 80.415253 -29.702423 24.016651 116.080759 0.255762 -18.114715 86.271887 0.000000 0.000000 0.000000 -45.439059 6.448576 49.054589 5.753164 -50.283470 -59.987106 -28.901638 -47.862349 -119.703792 -9.427312 31.158158 -24.960569 0.000000 0.000000 0.000000 
-0.421597 1.452358 0.493225 0.000000 0.000000 0.000000 90.710451 -4.182894 93.176396 24.769319 6.955208 -100.046862 -22.412349 3.655293 53.904956 7.132467 2.085344 26.973344 31.710420 15.790330 -23.494463 0.000000 0.000000 0.000000 90.684558 -4.239326 92.477961 -35.659830 45.617573 -4.315010 -21.782908 29.782490 -8.687674 -5.570105 -40.302091 -41.433157 59.173890 -6.196596 19.185458 0.000000 0.000000 0.000000 90.447476 -4.191311 94.004010 11.331630 4.106688 52.927252 -105.262122 10.686429 100.274615 0.000000 0.000000 0.000000 -102.697024 12.302699 98.426653 -149.950574 48.871684 50.946125 -80.460079 -10.401220 -26.031934 0.000000 0.000000 0.000000 -105.132710 12.885011 101.269275 -66.700656 50.683050 -157.528792 -62.476123 55.649922 159.164486 57.395425 -54.040221 3.647851 0.000000 0.000000 0.000000 -106.353436 9.655599 96.282650 -7.199926 -51.172160 -51.688225 -32.273378 -64.169238 -118.356264 -46.157155 12.064645 -68.283040 0.000000 0.000000 0.000000 
-0.257715 1.613753 0.433338 0.000000 0.000000 0.000000 90.553705 -4.555127 92.464908 3.664468 -5.802494 -47.292899 -36.757940 13.463603 13.043871 8.277370 -12.578076 20.722736 40.631433 19.385498 -6.827553 0.000000 0.000000 0.000000 90.156475 -4.378150 93.053842 -33.229724 63.670887 -62.793774 -21.964422 29.892586 -71.364132 27.407362 -19.724021 -30.118515 59.159281 6.895969 18.963426 0.000000 0.000000 0.000000 90.298495 -4.475739 93.990404 0.976567 -6.207321 62.054365 -126.135781 -13.445286 140.256104 0.000000 0.000000 0.000000 -125.879717 -12.728495 141.193028 -152.215342 56.836258 50.379236 -66.125985 -18.897703 -38.266924 0.000000 0.000000 0.000000 -127.736586 -13.212627 140.471050 -73.438460 26.585407 -139.012655 -85.539097 56.770152 -156.667300 61.216055 -66.914496 -20.294999 0.000000 0.000000 0.000000 -127.542144 -14.018303 138.058081 -40.647579 -52.702337 -45.245499 -16.866546 -69.422821 -103.176640 -74.365228 18.247358 -93.866825 0.000000 0.000000 0.000000 
-0.074636 1.370284 0.366096 0.000000 0.000000 0.000000 90.552797 -4.455515 91.207833 -1.125670 -14.117061 -6.826299 -18.170431 5.036479 -36.617252 -11.031457 -13.222624 7.249053 38.506448 9.336562 -22.322665 0.000000 0.000000 0.000000 89.700622 -4.348969 93.313314 -7.810537 68.524173 -136.297081 -8.974858 33.241301 -93.604580 38.638353 -7.939788 -33.216825 60.446880 4.580143 0.368991 0.000000 0.000000 0.000000 90.334634 -4.628084 92.854298 9.557264 -3.408915 68.475146 -119.240104 -16.830576 145.475653 0.000000 0.000000 0.000000 -118.107194 -13.587697 145.274886 -135.981266 57.331686 37.876739 -65.980802 -13.299099 -28.552984 0.000000 0.000000 0.000000 -118.984026 -13.418788 146.759482 -71.911496 40.175859 -151.323551 -66.908526 60.338451 176.963289 67.075238 -66.839077 -22.051978 0.000000 0.000000 0.000000 -120.622630 -12.605862 143.877143 3.620069 -27.456049 -30.292763 18.731468 -50.572090 -84.424663 -84.844275 31.301019 -99.218060 0.000000 0.000000 0.000000 
